<svg width="280" height="237" viewBox="0 0 280 237" fill="none" xmlns="http://www.w3.org/2000/svg">
<g filter="url(#filter0_b_515_5860)">
<path d="M246.592 96.2736C240.735 73.5271 219.359 74.9412 199.105 79.1619C188.21 81.4325 172.954 84.5745 157.034 79.9347C122.766 69.9491 83.3653 67.455 63.9478 79.9347C44.531 92.4144 32.8587 107.452 38.4575 128.46C44.0564 149.469 58.2803 168.356 46.1837 179.599C34.0878 190.843 34.2904 233.426 84.0322 236.742C133.774 240.057 128.841 192.322 161.69 194.538C194.541 196.755 261.975 229.069 264.822 205.641C267.671 182.214 231.084 165.503 244.2 126.6C246.803 118.879 249.268 106.67 246.592 96.2736Z" fill="#F3F6F5"/>
</g>
<path opacity="0.1" d="M132.213 59.0468C132.213 59.0468 133.483 50.8891 137.06 51.2068C138.05 51.2951 138.723 52.2979 139.164 53.3754C139.436 54.0389 140.387 53.9925 140.584 53.3028C141.53 49.9882 143.466 44.9287 146.465 44.9287C149.567 44.9287 149.67 50.7171 149.445 54.2429C149.411 54.7738 150.099 55.0098 150.398 54.5691C151.217 53.3649 152.41 52.209 153.863 52.5438C156.691 53.1969 155.93 59.0468 155.93 59.0468H132.213Z" fill="#2C2A40" stroke="black"/>
<path opacity="0.1" d="M1.39844 135.765C1.39844 135.765 2.6687 127.607 6.24545 127.925C7.2359 128.013 7.90928 129.017 8.34992 130.093C8.62189 130.758 9.57246 130.711 9.76925 130.021C10.7159 126.706 12.651 121.647 15.6505 121.647C18.7533 121.647 18.8553 127.435 18.6304 130.961C18.5964 131.492 19.2848 131.728 19.5842 131.288C20.4021 130.083 21.5965 128.927 23.0485 129.262C25.8774 129.915 25.1157 135.765 25.1157 135.765H1.39844Z" fill="#2C2A40" stroke="black"/>
<path opacity="0.1" d="M253.074 103.172C253.074 103.172 254.344 95.0143 257.921 95.3321C258.911 95.4203 259.584 96.4238 260.026 97.5006C260.298 98.1648 261.248 98.1178 261.445 97.428C262.391 94.1134 264.327 89.054 267.326 89.054C270.428 89.054 270.531 94.8424 270.306 98.3681C270.272 98.899 270.961 99.135 271.259 98.695C272.078 97.4901 273.272 96.3343 274.724 96.6697C277.552 97.3221 276.791 103.172 276.791 103.172H253.074Z" fill="#2C2A40" stroke="black"/>
<path d="M243.703 236.332C243.703 236.332 247.697 235.627 247.462 230.342C247.227 225.057 245.465 217.774 241.941 215.66C238.418 213.546 235.846 216.6 235.846 216.6L243.703 236.332Z" fill="#7B7B9A"/>
<path d="M227.964 215.661C228.082 217.423 229.726 220.005 233.25 221.885C236.773 223.765 238.653 230.46 240.237 233.396C240.965 234.745 241.756 235.475 242.399 235.871C243.154 236.332 243.704 236.332 243.704 236.332C243.704 236.332 243.724 235.869 243.727 235.067C243.738 233.161 243.653 229.343 242.975 225.291C242.011 219.536 238.6 217.539 238.6 217.539C237.978 216.478 236.638 215.722 235.11 215.245C232.612 214.465 229.617 214.429 228.456 215.018C228.128 215.182 227.946 215.398 227.964 215.661Z" fill="#B0B1CA"/>
<path d="M241.616 224.352C242.449 227.877 242.826 233.695 242.398 235.871C243.154 236.332 243.704 236.332 243.704 236.332C243.704 236.332 243.938 231.047 242.974 225.291C242.011 219.536 238.6 217.539 238.6 217.539C237.978 216.478 236.637 215.722 235.109 215.245C237.129 217.268 240.91 221.368 241.616 224.352Z" fill="#2C2A40"/>
<path opacity="0.2" d="M227.964 215.661C228.082 217.423 229.726 220.005 233.25 221.885C236.773 223.765 238.653 230.46 240.237 233.396C240.965 234.745 241.756 235.475 242.399 235.871C243.154 236.332 243.704 236.332 243.704 236.332C243.704 236.332 243.724 235.869 243.727 235.067C243.648 234.995 243.562 234.946 243.468 234.923C242.295 234.629 240.709 234.176 239.768 229.814C238.829 225.451 237.244 222.296 234.543 220.946C232.078 219.715 228.982 215.714 228.456 215.018C228.128 215.182 227.946 215.398 227.964 215.661Z" fill="#2C2A40"/>
<path d="M231.094 153.35C231.094 153.35 234.542 152.527 235.775 148.475L231.664 146.655C231.664 146.655 230.054 150.824 231.094 153.35Z" fill="#00497B"/>
<path d="M231.094 146.244C236.731 154.819 249.457 157.049 249.457 157.049C252.091 156.279 255.603 152.615 259.075 148.145H259.077C265.673 139.649 272.127 128.243 272.127 128.243L266.841 126.482C266.841 126.482 257.561 136.73 253.57 138.96C249.575 141.193 248.4 143.307 248.4 143.307C247.984 142.854 247.503 142.412 246.985 141.986C244.147 139.644 240.236 137.814 240.236 137.814C235.713 136.549 231.094 146.244 231.094 146.244Z" fill="#F9B587"/>
<path d="M231.094 146.244C236.731 154.819 249.457 157.05 249.457 157.05C252.091 156.279 255.603 152.615 259.075 148.145C259.075 148.145 252.873 154.735 248.928 155.288C244.986 155.841 237.516 150.473 236.761 148.417C236.009 146.36 237.121 141.13 240.236 137.814C235.713 136.549 231.094 146.244 231.094 146.244Z" fill="#F39568"/>
<path d="M177 168.743C177 168.743 176.703 186.077 179.136 197.021C181.57 207.967 191.964 179.102 191.964 179.102C191.964 179.102 182.648 170.922 177 168.743Z" fill="#2C2A40"/>
<path d="M213.332 178.896C213.332 178.896 213.106 189.115 206.411 196.339C199.716 203.562 196.84 212.019 196.84 212.019C196.84 212.019 206.862 207.438 213.332 208.671C213.332 208.671 216.718 208.847 217.951 207.438C219.184 206.029 219.537 204.355 221.474 204.883C223.413 205.412 226.144 204.795 226.848 204.708C227.553 204.619 232.046 211.755 231.164 216.424C231.164 216.424 227.641 217.393 227.201 218.009C226.76 218.626 224.206 221.269 222.62 221.181C221.034 221.092 216.806 223.559 216.806 223.559C216.806 223.559 195.016 231.85 193.021 233.249C189.661 235.606 173.817 238.182 172.407 229.285C170.998 220.388 184.828 178.103 186.767 173.523C188.704 168.942 211.002 173.346 213.332 178.896Z" fill="#2C2A40"/>
<path d="M193.518 208.222L194.132 208.446C194.354 207.835 194.628 207.186 194.943 206.514L194.352 206.236C194.028 206.925 193.747 207.593 193.518 208.222Z" fill="#5B5B6C"/>
<path d="M225.732 207.335L225.872 207.973C226.52 207.831 227.218 207.695 227.948 207.567L227.836 206.923C227.096 207.052 226.388 207.191 225.732 207.335Z" fill="#5B5B6C"/>
<path d="M193.345 213.254L192.695 213.326L192.704 213.399C192.816 214.301 193.088 214.975 193.535 215.458L194.015 215.014C193.669 214.64 193.446 214.07 193.353 213.316L193.345 213.254Z" fill="#5B5B6C"/>
<path d="M198.508 215.176L198.684 215.805C199.355 215.618 200.062 215.392 200.728 215.175L200.527 214.553C199.866 214.767 199.167 214.992 198.508 215.176Z" fill="#5B5B6C"/>
<path d="M197.992 199.98C197.579 200.6 197.188 201.204 196.832 201.772L197.386 202.12C197.739 201.556 198.126 200.958 198.536 200.343L197.992 199.98Z" fill="#5B5B6C"/>
<path d="M196.625 203.369L196.062 203.037C195.68 203.683 195.329 204.311 195.016 204.906L195.594 205.21C195.902 204.625 196.249 204.006 196.625 203.369Z" fill="#5B5B6C"/>
<path d="M210.175 178.2L209.53 178.088C209.411 178.778 209.271 179.474 209.113 180.156L209.751 180.302C209.91 179.609 210.053 178.902 210.175 178.2Z" fill="#5B5B6C"/>
<path d="M200.576 197.39L200.044 197.011C199.598 197.636 199.198 198.207 198.82 198.757L199.358 199.128C199.735 198.581 200.133 198.013 200.576 197.39Z" fill="#5B5B6C"/>
<path d="M202.154 194.094C201.739 194.661 201.321 195.235 200.902 195.813L201.433 196.196C201.85 195.618 202.267 195.046 202.681 194.479L202.154 194.094Z" fill="#5B5B6C"/>
<path d="M193.692 209.82L193.061 209.649C192.858 210.404 192.728 211.126 192.676 211.796L193.328 211.847C193.377 211.217 193.5 210.535 193.692 209.82Z" fill="#5B5B6C"/>
<path d="M195.115 215.589L194.992 216.231C195.238 216.279 195.511 216.302 195.801 216.302C196.223 216.302 196.688 216.254 197.225 216.154L197.104 215.511C196.285 215.664 195.637 215.689 195.115 215.589Z" fill="#5B5B6C"/>
<path d="M212.617 212.752L212.726 213.397C213.438 213.276 214.146 213.122 214.832 212.938L214.663 212.307C213.997 212.485 213.309 212.635 212.617 212.752Z" fill="#5B5B6C"/>
<path d="M216.047 211.882L216.261 212.5C216.981 212.25 217.653 211.969 218.26 211.665L217.968 211.081C217.386 211.372 216.74 211.641 216.047 211.882Z" fill="#5B5B6C"/>
<path d="M201.928 214.1L202.125 214.723C202.941 214.465 203.565 214.283 204.149 214.135L203.986 213.501C203.391 213.653 202.756 213.838 201.928 214.1Z" fill="#5B5B6C"/>
<path d="M209.09 213.068L209.096 213.721C209.805 213.715 210.529 213.674 211.247 213.599L211.18 212.949C210.482 213.022 209.778 213.062 209.09 213.068Z" fill="#5B5B6C"/>
<path d="M222.223 208.337L222.459 208.946C223.018 208.73 223.688 208.517 224.453 208.315L224.285 207.682C223.497 207.892 222.804 208.111 222.223 208.337Z" fill="#5B5B6C"/>
<path d="M220.179 209.542C219.929 209.816 219.6 210.092 219.201 210.364L219.571 210.903C220.01 210.603 220.377 210.294 220.661 209.984C220.79 209.844 220.969 209.701 221.193 209.559L220.843 209.006C220.57 209.179 220.347 209.359 220.179 209.542Z" fill="#5B5B6C"/>
<path d="M208.758 181.571C208.573 182.256 208.367 182.933 208.146 183.587L208.766 183.795C208.99 183.13 209.2 182.439 209.389 181.742L208.758 181.571Z" fill="#5B5B6C"/>
<path d="M203.023 192.906L203.551 193.292C203.978 192.708 204.398 192.134 204.804 191.572L204.274 191.188C203.868 191.75 203.45 192.323 203.023 192.906Z" fill="#5B5B6C"/>
<path d="M206.749 188.498L206.174 188.189C205.837 188.815 205.477 189.422 205.105 189.993L205.653 190.35C206.035 189.764 206.405 189.141 206.749 188.498Z" fill="#5B5B6C"/>
<path d="M206.826 186.89L207.417 187.168C207.715 186.535 207.999 185.87 208.262 185.193L207.652 184.957C207.395 185.62 207.117 186.27 206.826 186.89Z" fill="#5B5B6C"/>
<path d="M205.451 213.186L205.561 213.83C206.328 213.7 206.984 213.651 207.605 213.683L207.638 213.03C206.969 212.996 206.267 213.047 205.451 213.186Z" fill="#5B5B6C"/>
<path d="M176.195 52.7484L178.852 64.0723L178.868 64.1422C178.868 64.1422 179.042 66.2395 179.615 69.0088C180.253 72.0939 181.386 76.0152 183.322 78.8029C183.618 79.2311 183.933 79.6325 184.27 79.9993C184.27 79.9993 185.953 86.4631 187.766 92.0462H187.767C188.835 95.336 189.947 98.3204 190.789 99.4959C190.789 99.4959 201.525 97.4783 198.953 91.0584C198.953 91.0584 195.301 82.6876 192.424 76.5173L192.422 76.5127C191.865 75.3177 191.337 74.2063 190.87 73.2531L187.579 65.742L186.002 62.143L181.217 51.2212L176.195 52.7484Z" fill="#F9B587"/>
<path d="M187.768 92.0462C188.836 95.336 189.947 98.3204 190.789 99.4959C190.789 99.4959 201.526 97.4783 198.953 91.0584C198.953 91.0584 195.302 82.6876 192.424 76.5173C192.493 76.7573 195.007 85.5772 194.255 88.0563C193.492 90.57 191.261 92.938 187.768 92.0462Z" fill="#F39568"/>
<path d="M187.833 99.9129C187.991 104.58 189.913 110.14 192.14 113.454C193.483 114.869 195.162 114.864 196.878 114.126C201.242 112.253 205.858 105.653 205.858 105.653L199.57 92.36L198.953 91.0583C195.402 92.0272 191.804 94.5553 189.716 96.21C188.587 97.105 187.9 97.7444 187.9 97.7444C187.827 98.4348 187.808 99.1624 187.833 99.9129Z" fill="#E03641"/>
<path opacity="0.2" d="M187.833 99.9131C187.991 104.58 189.913 110.141 192.14 113.455C193.483 114.869 195.162 114.864 196.878 114.126C193.109 110.384 190.532 99.9099 189.716 96.2102C188.587 97.1052 187.9 97.7446 187.9 97.7446C187.827 98.435 187.808 99.1626 187.833 99.9131Z" fill="#2C2A40"/>
<path d="M187.833 99.9129C190.773 96.9939 197.502 93.4224 199.57 92.36L198.953 91.0583C193.481 92.5522 187.9 97.7444 187.9 97.7444C187.827 98.4348 187.808 99.1624 187.833 99.9129Z" fill="#2C2A40"/>
<path d="M173.553 170.968C181.735 181.563 215.906 182.244 215.906 182.244C215.906 182.244 214.695 168.222 215.906 161.278C217.237 153.644 218.391 142.426 218.391 142.426C221.517 144.712 226.291 148.964 229.01 151.434C230.275 152.585 231.095 153.35 231.095 153.35C231.952 149.414 233.139 146.433 234.376 144.19C237.182 139.102 240.237 137.814 240.237 137.814L238.806 135.945L228.434 122.399L217.288 113.166L215.37 111.577L206.599 105.958L203.009 103.657C203.009 103.657 193.726 107.542 191.083 111.577C188.44 115.609 182.369 134.306 180.512 143.483C178.104 155.386 175.213 165.462 174.062 169.303L174.058 169.31C173.738 170.383 173.553 170.968 173.553 170.968Z" fill="#E03641"/>
<path opacity="0.2" d="M173.553 170.968C181.735 181.562 215.906 182.244 215.906 182.244C215.906 182.244 214.695 168.222 215.906 161.278C217.237 153.644 218.391 142.426 218.391 142.426C221.517 144.712 226.291 148.964 229.01 151.434C230.275 152.585 231.095 153.35 231.095 153.35C231.952 149.414 233.139 146.433 234.376 144.19C234.376 144.19 222.399 137.7 217.28 132.031C217.28 132.031 210.898 149.682 208.701 158.577C205.858 170.088 196.214 174.786 187.364 174.198C178.515 173.611 174.062 169.303 174.062 169.303L174.058 169.31C173.738 170.383 173.553 170.968 173.553 170.968Z" fill="#2C2A40"/>
<path d="M211.834 115.23C213.86 114.831 214.889 113.704 216.428 112.453L215.37 111.577L206.015 104.15C204.774 104.938 203.224 105.711 203.009 108.863C202.683 113.621 207.699 116.043 211.834 115.23Z" fill="#2C2A40"/>
<path d="M229.01 151.434C230.275 152.585 231.094 153.35 231.094 153.35C233.895 140.488 240.236 137.814 240.236 137.814L238.805 135.945C236.193 137.814 230.754 142.648 229.01 151.434Z" fill="#2C2A40"/>
<path d="M222.399 100.696C222.399 100.696 222.582 105.8 216.699 106.847C216.699 106.847 218.171 100.168 222.399 100.696Z" fill="#2C2A40"/>
<path d="M212.755 89.7542C216.309 95.4661 222.052 100.273 222.052 100.273C222.052 100.273 234.311 94.3528 230.282 84.6274C229.2 82.0162 227.873 80.1099 226.434 78.7376V78.7356H226.432C220.301 72.8812 212.129 76.6638 212.129 76.6638C208.562 80.3602 209.999 85.3288 212.755 89.7542Z" fill="#E03641"/>
<path d="M226.432 78.7361L226.433 78.7379V78.7361H226.432Z" fill="#3E86AA"/>
<path opacity="0.2" d="M212.754 89.7544C216.308 95.4664 222.051 100.273 222.051 100.273C222.051 100.273 234.31 94.353 230.281 84.6276C229.199 82.0164 227.872 80.1101 226.433 78.7378C226.503 78.8509 229.885 84.2647 226.431 87.8676C222.941 91.5098 216.896 92.8147 212.754 89.7544Z" fill="#2C2A40"/>
<path d="M221.986 87.1595C221.986 87.1595 218.781 70.5839 208.527 71.3364C198.925 72.0411 206.407 84.7484 206.407 84.7484C206.407 84.7484 220.267 88.7063 221.986 87.1595Z" fill="#2C2A40"/>
<path d="M209.309 81.2959C209.309 81.2959 204.911 82.1719 205.322 86.224C205.322 86.224 209.048 84.0156 209.309 81.2959Z" fill="#2C2A40"/>
<path d="M216.982 105.839L215.37 111.576C215.203 112.357 214.597 112.975 213.817 113.147C207.085 114.627 203.878 109.691 204.556 107.96C205.426 107.651 220.412 102.857 223.138 97.0979C223.138 97.0979 222.183 102.244 216.982 105.839Z" fill="#F9B587"/>
<path d="M205.325 105.59C207.48 106.42 210.516 107.172 213.676 106.612C219.638 105.553 222.742 98.4964 222.742 98.4964C222.742 98.4964 223.738 93.703 222.399 89.2737C222.038 88.0721 221.502 86.8953 220.729 85.8506C217.924 82.0588 213.262 81.3821 210.697 81.1376C209.421 81.016 208.188 81.6273 207.519 82.7197L206.394 84.5588L205.644 85.7852C205.482 86.0493 205.337 86.3187 205.207 86.5952C204.768 87.5275 204.502 88.5317 204.425 89.564L204.337 90.7656C203.757 91.5096 203.31 92.3392 203.01 93.2198C202.748 93.9815 202.594 94.781 202.559 95.595L202.327 101.007C202.24 103.019 203.445 104.866 205.325 105.59Z" fill="#F9B587"/>
<path d="M211.492 87.589C211.492 87.589 216.263 85.7859 217.281 89.7327L216.536 90.3034C216.536 90.3034 215.094 87.2608 211.299 88.618L211.492 87.589Z" fill="#2C2A40"/>
<path d="M204.337 90.7661C203.758 91.5095 203.31 92.3384 203.01 93.2197C203.949 93.0243 205.578 93.2302 208.312 94.8934C208.312 94.8934 207.306 92.9465 205.762 92.2391C205.348 92.0488 205.235 91.5127 205.538 91.1715L207.569 88.8905C207.569 88.8905 207.488 88.223 206.914 87.734C206.564 87.4359 205.828 86.9403 205.207 86.5964C204.768 87.5267 204.503 88.5322 204.426 89.5652L204.337 90.7661Z" fill="#F39568"/>
<path d="M205.704 85.8592C206.799 86.426 207.566 87.1438 207.566 87.1438L207.29 88.0565C206.605 87.4334 205.936 87.032 205.308 86.7836C204.998 86.6607 204.847 86.3214 204.981 86.0553L204.986 86.0461C205.109 85.8016 205.431 85.7179 205.704 85.8592Z" fill="#2C2A40"/>
<path d="M203.856 95.4929L212.129 98.2106C212.129 98.2106 209.344 102.101 205.167 100.146C201.891 98.6127 203.856 95.4929 203.856 95.4929Z" fill="white"/>
<path d="M205.859 105.654C205.859 105.654 211.054 107.192 216.699 101.49C216.699 101.49 216.822 104.554 213.794 107.559C211.589 109.746 207.426 109.384 205.323 109.025C204.69 108.917 204.358 108.211 204.684 107.657L205.859 105.654Z" fill="#F39568"/>
<path d="M221.205 96.4409C221.205 96.4409 223.948 94.241 225.572 96.4782C227.196 98.7147 223.134 104.695 220.497 102.09C217.861 99.4855 221.205 96.4409 221.205 96.4409Z" fill="#F9B587"/>
<path d="M211.379 90.5355C211.379 90.5355 212.463 89.3214 213.735 89.8693C215.59 90.6682 215.262 92.3896 215.262 92.3896C215.262 92.3896 214.544 89.1318 211.379 90.5355Z" fill="#2C2A40"/>
<path d="M206.779 89.7046C206.779 89.7046 206.167 87.6295 204.605 89.141C204.605 89.141 205.974 88.3362 206.779 89.7046Z" fill="#2C2A40"/>
<path d="M206.334 84.528C206.337 84.5895 206.192 84.8203 206.195 84.8837C206.195 84.8837 208.873 82.6419 213.588 84.462C218.301 86.2821 220.612 90.7447 220.612 90.7447L222.399 89.2737C222.037 88.0721 221.502 86.8953 220.729 85.8506C217.924 82.0588 213.262 81.3821 210.697 81.1376C209.421 81.016 208.188 81.6273 207.519 82.7197L206.334 84.528Z" fill="#F39568"/>
<path d="M219.77 96.7946L221.318 97.4994L223.577 95.4733C223.933 93.5264 222.354 88.329 221.984 87.1594C221.785 86.9692 221.458 86.7822 221.227 86.5952C221.227 86.5952 219.673 91.9724 221.356 93.9638L219.77 96.7946Z" fill="#2C2A40"/>
<path d="M178.852 64.0723L178.867 64.1423C178.867 64.1423 179.042 66.2396 179.615 69.0089L187.578 65.7421L186.001 62.1431L178.852 64.0723Z" fill="#F39568"/>
<path opacity="0.2" d="M190.536 118.651L196.839 124.28C196.839 124.28 194.585 133.124 189.76 131.151C183.947 128.772 190.536 118.651 190.536 118.651Z" fill="#2C2A40"/>
<path d="M163.742 50.9158L170.366 68.729C170.751 68.5858 170.581 68.6492 171.216 68.4119L181.288 54.1454L164.28 49.8325L163.742 50.9158Z" fill="white"/>
<path d="M265.319 129.443C264.07 128.667 263.166 127.449 262.775 126.032C262.663 125.624 262.53 125.192 262.379 124.768C261.792 123.124 262.262 119.6 262.379 118.19C262.496 116.781 263.495 114.079 263.788 113.786C264.082 113.492 265.844 114.744 265.139 116.555C264.434 118.366 264.941 120.379 265.304 120.958C265.668 121.538 267.312 120.48 267.723 119.423C268.135 118.366 271.716 110.38 272.421 110.144C273.126 109.91 273.714 110.086 273.244 112.141C272.774 114.197 270.542 117.779 270.836 118.777C271.129 119.776 271.658 118.954 271.834 118.425C272.01 117.897 274.888 110.337 275.358 110.065C275.827 109.792 277.179 109.321 276.474 112.522C275.769 115.724 273.581 119.629 273.714 120.334C273.846 121.039 276.841 113.243 277.678 112.802C278.514 112.361 279.131 113.154 278.471 115.092C277.81 117.031 276.045 120.788 275.897 121.213C275.772 121.57 275.842 121.872 276.151 121.695C276.459 121.519 278.322 116.942 278.749 116.678C279.175 116.414 280.232 116.898 279.087 120.025C277.942 123.153 277.179 125.924 274.066 128.802C272.145 130.578 271.203 131.654 269.397 131.389C268.315 131.231 266.669 130.282 265.319 129.443Z" fill="#F9B587"/>
<path d="M248.4 148.417C248.091 145.663 248.4 143.307 248.4 143.307C247.984 142.854 247.503 142.412 246.985 141.986C246.287 147.389 248.4 148.417 248.4 148.417Z" fill="#F39568"/>
<path d="M183.322 78.803C183.618 79.2312 183.934 79.6326 184.27 79.9994C184.27 79.9994 186.989 78.4133 187.773 78.0015C187.773 78.0015 185.264 78.0453 183.322 78.803Z" fill="#F39568"/>
<path d="M226.848 205.116C228.306 206.494 229.487 209.716 230.253 212.327L230.257 212.338C230.879 214.455 231.226 216.17 231.226 216.17C232.522 217.58 235.481 217.174 240.236 217.69C244.516 218.156 247.514 221.131 250.705 222.412H250.708C251.062 222.557 251.418 222.676 251.778 222.771C253.675 223.27 255.012 222.958 255.74 222.04C256.399 221.211 256.559 219.882 256.182 218.207C255.389 214.676 246.492 206.924 243.938 205.892C241.383 204.857 239.797 204.255 236.761 201.756C233.728 199.258 230.636 199.087 230.019 200.023C229.915 200.18 229.758 200.428 229.566 200.731C228.618 202.237 226.848 205.116 226.848 205.116Z" fill="#B0B1CA"/>
<path d="M229.566 200.731C230.573 200.62 232.274 200.569 233.485 201.271C235.305 202.329 237.889 204.795 240.648 206.087C243.409 207.38 248.695 211.02 251.456 213.605C254.215 216.189 255.839 220.255 255.038 221.591C254.236 222.928 252.775 222.88 250.708 222.412C251.063 222.557 251.419 222.676 251.778 222.771C255.389 223.719 256.976 221.737 256.182 218.207C255.389 214.676 246.492 206.924 243.938 205.892C241.383 204.857 239.798 204.255 236.762 201.756C233.728 199.258 230.636 199.087 230.019 200.023C229.916 200.18 229.759 200.428 229.566 200.731Z" fill="#2C2A40"/>
<path opacity="0.2" d="M230.258 212.338C230.88 214.455 231.227 216.17 231.227 216.17C232.523 217.58 235.481 217.174 240.237 217.69C244.516 218.156 247.515 221.131 250.706 222.412H250.709C251.063 222.557 251.419 222.676 251.778 222.771C253.676 223.27 255.013 222.958 255.741 222.04L255.977 220.652C255.977 220.652 252.806 222.238 249.165 220.123C246.378 218.506 245.121 216.929 242.884 216.305C243.3 214.613 242.352 212.782 242.352 212.782C242.177 214.662 241.658 216.014 241.658 216.014C241.216 215.951 240.747 215.928 240.238 215.953C236.604 216.129 230.931 214.38 230.258 212.338Z" fill="#2C2A40"/>
<path d="M177.748 59.1848L176.336 52.6624L172.916 46.2961L176.004 45.5461L176.875 48.9299L180.922 49.8713L181.422 51.7385L182.102 53.0813L186.025 62.3254L178.84 64.2444L177.748 59.1848Z" fill="#F39568"/>
<path d="M173.354 44.9075L173.358 44.903C173.681 44.5231 174.271 44.2636 174.636 44.2858C174.716 43.9171 175.147 43.6451 175.632 43.5457C175.914 43.4876 176.207 43.5412 176.463 43.6719C176.684 43.2463 177.24 42.9933 177.544 43.162C177.544 43.162 177.617 43.1934 177.743 43.2515C177.846 42.9345 178.084 42.7704 178.084 42.7704L178.086 42.771C178.398 42.3304 179.29 42.0976 179.631 42.2866C179.631 42.2866 182.601 43.4856 182.884 45.7751C183.167 48.0646 183.587 50.7306 182.526 50.3501C182.222 50.2416 181.922 49.8624 181.658 49.3479C181.773 50.7221 181.706 51.7498 181.02 51.504C180.638 51.3674 180.263 50.8038 179.956 50.0808C180.022 51.2464 179.906 52.0565 179.289 51.8348C178.731 51.6354 178.19 50.5273 177.85 49.3388C177.953 50.6652 177.873 51.6387 177.203 51.3988C176.382 51.1046 176.147 49.2609 175.573 47.7697C174.899 46.0235 174.744 46.9375 173.755 46.2981L172.867 46.6296C172.682 45.6103 173.298 44.9638 173.354 44.9075Z" fill="#F9B587"/>
<path d="M17.7843 178.743C18.8944 178.681 19.8104 178.114 20.5968 177.291C20.621 177.266 20.6472 177.24 20.6714 177.213L20.6746 177.211C22.0443 175.737 23.0295 173.492 24.0017 171.803C24.2854 171.306 24.5704 170.856 24.8627 170.488C25.7799 169.334 27.3816 166.288 28.7748 163.483C28.8461 163.341 28.916 163.199 28.9853 163.059C30.3412 160.316 31.4493 157.914 31.4493 157.914C31.4493 157.914 30.9355 156.409 30.1131 154.863C29.8614 154.389 29.5789 153.911 29.2736 153.469C28.6623 152.585 27.9563 151.857 27.2025 151.625C24.8535 150.902 22.6765 152.46 20.8688 154.564C19.0991 156.624 14.2292 165.313 13.4355 168.92C13.4185 168.997 13.4028 169.072 13.3904 169.145C12.5653 173.681 14.1121 178.954 17.7843 178.743Z" fill="#B0B1CA"/>
<path d="M17.7843 178.743C18.9297 178.678 19.8679 178.079 20.6714 177.213C18.1151 178.438 16.5579 177.697 15.6616 176.683C14.541 175.416 14.1193 171.937 14.4116 170.467C15.1242 166.889 17.7719 161.28 19.1187 159.047C20.4661 156.814 23.1367 153.128 25.7322 152.768C27.2182 152.562 28.4728 153.031 29.2736 153.469C28.6623 152.585 27.9563 151.857 27.2025 151.625C24.8535 150.902 22.6765 152.46 20.8688 154.564C19.0618 156.668 14.02 165.688 13.3904 169.145C12.5653 173.681 14.1121 178.954 17.7843 178.743Z" fill="#2C2A40"/>
<path opacity="0.2" d="M17.7843 178.743C18.8944 178.681 19.8104 178.114 20.5968 177.291C20.621 177.266 20.6472 177.24 20.6714 177.214L20.6746 177.212C22.0443 175.737 23.0295 173.492 24.0017 171.803C24.2854 171.306 24.5704 170.856 24.8627 170.488C25.7799 169.334 27.3816 166.288 28.7748 163.483C28.8461 163.341 28.916 163.199 28.9853 163.059C28.5466 162.543 27.9674 162.318 27.2097 162.53C27.2097 162.53 25.3876 164.21 23.665 167.667C21.7723 171.465 20.7779 175.071 17.2345 175.102C13.6918 175.135 14.3298 172.808 13.8565 169.457C13.7898 168.99 13.6421 168.837 13.4355 168.921C13.4185 168.997 13.4028 169.072 13.3904 169.145C12.5653 173.681 14.1121 178.954 17.7843 178.743Z" fill="#2C2A40"/>
<path d="M76.4226 210.532C76.4619 212.496 78.0054 225.492 82.2418 228.122C84.3816 229.449 85.61 229.397 86.2252 228.405C86.5789 227.838 86.7325 226.966 86.741 225.871C86.7489 225.087 86.6822 224.187 86.5619 223.205C85.9813 218.439 85.9107 207.408 90.1007 205.014C90.1007 205.014 89.3332 199.323 87.3726 195.816C86.7842 194.759 86.0853 193.901 85.2661 193.456C85.2661 193.456 82.3418 193.473 80.5021 193.722C79.7072 193.83 78.6356 193.795 77.6321 194.068C76.3135 194.428 75.1105 195.318 74.7993 197.761C74.2502 202.064 76.3821 208.568 76.4226 210.532Z" fill="#B0B1CA"/>
<path d="M76.4226 210.532C76.4619 212.496 78.0054 225.492 82.2418 228.122C84.3816 229.449 85.61 229.397 86.2252 228.405C85.1432 228.45 83.6494 228.092 82.3098 226.941C80.4688 225.359 78.1538 216.438 78.2898 213.559C78.4271 210.68 77.2385 205.443 76.1964 201.424C75.4067 198.383 76.8737 195.357 77.6321 194.068C76.3135 194.428 75.1105 195.318 74.7993 197.761C74.2502 202.064 76.3821 208.568 76.4226 210.532Z" fill="#2C2A40"/>
<path opacity="0.2" d="M76.4226 210.532C76.4619 212.496 78.0054 225.492 82.2418 228.122C84.3816 229.449 85.61 229.397 86.2252 228.405C86.5789 227.838 86.7325 226.966 86.741 225.871C85.9323 226.052 84.717 225.746 83.3068 224.953C80.8238 223.557 80.3289 215.945 80.6859 210.919C81.0422 205.893 78.0381 201.941 79.7653 198.777C81.4926 195.614 87.2019 196.329 87.2019 196.329C87.2706 196.153 87.3281 195.983 87.3726 195.816C86.7842 194.759 86.0853 193.901 85.2661 193.456C85.2661 193.456 82.3418 193.473 80.5021 193.722C79.7072 193.83 78.6356 193.795 77.6321 194.068C76.3135 194.428 75.1105 195.318 74.7993 197.761C74.2502 202.064 76.3821 208.568 76.4226 210.532Z" fill="#2C2A40"/>
<path d="M60.8652 104.116C60.8652 104.116 60.8266 108.86 58.8843 114.021C58.8843 114.021 58.3135 117.464 57.4244 121.732V121.734C56.3777 126.759 55.3598 130.455 53.8529 133.511C52.5833 136.083 51.6641 138.55 51.0378 140.474C50.9613 140.708 50.89 140.934 50.8233 141.15L50.8227 141.151C50.2251 143.076 49.9597 144.309 49.9597 144.309L44.3648 142.444C44.3648 142.444 44.0163 136.55 44.1183 133.339C44.2432 129.36 43.8274 121.584 46.3712 115.142C46.5745 114.628 46.7935 114.157 47.0315 113.737C47.0315 113.737 47.748 107.387 48.7829 103.193C49.1268 101.802 49.504 100.65 49.9035 100.044C49.9035 100.044 58.1886 99.1767 60.8652 104.116Z" fill="#F9B587"/>
<path d="M50.648 114.315C50.648 114.315 47.391 114.35 46.3717 115.142C46.5751 114.628 46.7941 114.157 47.0321 113.737C47.0321 113.737 49.534 113.59 50.648 114.315Z" fill="#F39568"/>
<path d="M60.8654 104.116C60.8654 104.116 60.8269 108.86 58.8845 114.021C58.8845 114.021 58.3138 117.464 57.4247 121.732C57.7679 118.519 57.5267 112.755 57.5933 108.55C57.6385 105.678 55.0541 105.005 52.7954 104.194C51.8552 103.856 50.0103 103.507 48.9211 103.148C48.8741 103.133 48.8283 103.179 48.7832 103.193C49.1271 101.802 49.5043 100.65 49.9038 100.044C49.9038 100.044 58.1889 99.1767 60.8654 104.116Z" fill="#F39568"/>
<path d="M49.1328 139.952L54.4936 143.753C55.0611 144.155 55.403 144.804 55.4148 145.499L55.5024 150.663C55.5128 151.279 55.0225 151.785 54.4073 151.794C53.8922 151.802 53.4385 151.455 53.3116 150.956L52.0767 146.09L50.8116 145.627L51.6053 148.532L52.582 151.167L55.0258 154.224C55.3808 154.668 55.2925 155.32 54.8316 155.653C54.4289 155.945 53.8732 155.895 53.5293 155.537L50.3089 152.191L48.1547 149.548L49.8512 152.867L53.1214 157.75C53.3378 158.074 53.3365 158.496 53.1188 158.818C52.7827 159.313 52.0786 159.382 51.6543 158.96L48.1103 155.437L46.0954 152.296L47.8658 157.835L49.4341 161.379C49.608 161.771 49.4662 162.231 49.1027 162.457C48.6993 162.708 48.1678 162.584 47.9181 162.18L45.641 158.498L43.9974 154.228L45.0565 157.905L45.639 159.158C45.7606 159.42 45.6475 159.731 45.386 159.852C45.1592 159.957 44.8898 159.887 44.7434 159.685L43.8745 158.484L42.584 155.44L44.3903 142.391C44.3903 142.391 45.1415 140.601 49.1328 139.952Z" fill="#F9B587"/>
<path d="M50.8229 141.151C50.8229 141.151 49.1715 140.166 47.2266 140.414C47.2266 140.414 49.3173 139.625 51.038 140.474L50.8229 141.151Z" fill="#F39568"/>
<path d="M101.902 62.8856C107.607 51.6356 105.286 36.8599 104.88 33.1236C104.845 32.7961 104.701 32.3404 104.465 31.7834V31.7814C102.302 26.6422 92.5079 12.7856 90.2779 9.65604C90.1269 9.44357 90.0099 9.28208 89.9321 9.17487C89.8621 9.07484 89.8242 9.02319 89.8242 9.02319L82.9531 12.2234C82.9531 12.2234 87.5726 17.0534 89.3888 23.1171C91.2043 29.1801 95.5499 37.1273 95.5499 37.1273C93.637 44.1598 93.4931 53.3622 93.4931 53.3622C96.8156 61.161 101.902 62.8856 101.902 62.8856Z" fill="#F9B587"/>
<path d="M101.903 62.8857C107.608 51.6357 105.287 36.8599 104.881 33.1237C104.846 32.7961 104.702 32.3405 104.466 31.7834C104.462 31.9691 104.298 43.8657 103.523 47.7092C102.742 51.5834 101.496 55.6498 99.2375 56.1944C96.9768 56.739 94.7173 55.4556 93.4941 53.3623C96.8166 61.161 101.903 62.8857 101.903 62.8857Z" fill="#F39568"/>
<path d="M89.8055 9.57498C88.8863 10.5497 84.8938 13.2563 84.3119 13.5165C84.108 13.6067 83.834 13.4773 83.5647 13.2707C83.2979 13.2779 81.5419 13.3054 80.59 12.8464C80.067 12.5928 80.0932 11.8448 80.2501 11.0558C78.9864 10.7171 76.5583 8.71462 76.6387 6.86904C76.7263 4.85806 78.8909 4.76326 78.8909 4.76326C78.9857 2.45416 81.1745 2.88173 81.1745 2.88173C81.3118 1.87885 83.1482 1.47744 83.1482 1.47744C83.3561 0.624929 84.5518 0.505941 85.2514 0.858976C85.9509 1.21136 90.0389 6.19762 90.203 7.09655C90.3664 7.99548 89.8055 9.57498 89.8055 9.57498Z" fill="#F9B587"/>
<path d="M83.5392 10.024C83.8157 11.1864 82.8403 11.3113 82.8403 11.3113C83.041 11.1655 83.0384 10.6719 82.9939 10.2456C82.9939 10.2456 82.9939 9.95668 82.8952 9.60823L82.8932 9.60496C82.7854 9.22512 82.5565 8.77533 82.0773 8.5452C81.2157 8.13464 80.8136 8.39026 80.8136 8.39026L79.1406 5.99944C80.0212 6.56168 81.1817 7.87706 81.1817 7.87706C82.7226 7.85352 83.2698 9.00153 83.4535 9.62784C83.7569 9.6115 84.0955 9.48924 84.2263 9.07148C84.4891 8.23859 83.9517 7.4155 83.9517 7.4155L81.6282 4.1604C81.6282 4.1604 84.8304 7.29782 84.8748 8.4916C84.9336 10.077 83.5392 10.024 83.5392 10.024Z" fill="#F39568"/>
<path d="M84.0547 3.2146C84.0547 3.2146 86.135 5.82835 86.4017 6.53572C86.692 7.30717 86.1886 8.05835 85.6263 8.19368C85.0634 8.329 84.7523 8.03547 84.7523 8.03547L84.7339 8.84221C84.7339 8.84221 86.8927 9.23185 86.9221 7.17445C86.9371 6.14608 84.0547 3.2146 84.0547 3.2146Z" fill="#F39568"/>
<path d="M86.7989 6.6958C86.7989 6.6958 87.3114 7.21032 87.9502 7.02137C88.5883 6.83244 88.7295 6.40684 88.5902 6.01196C88.5902 6.01196 88.9655 6.4003 88.6229 6.94489C88.1764 7.65488 87.1147 7.49863 86.7812 7.40252L86.7989 6.6958Z" fill="#F39568"/>
<path d="M88.9824 10.5098C88.9824 10.5098 89.7663 10.3679 90.2788 9.65598C90.1278 9.4435 90.0108 9.28202 89.933 9.1748C89.933 9.1748 89.6212 9.85668 88.9824 10.5098Z" fill="#F39568"/>
<path d="M84.0898 13.5386C84.0898 13.5386 85.094 13.4536 85.6641 13.0947C85.6641 13.0947 85.1346 13.7871 84.42 13.9538L84.0898 13.5386Z" fill="#F39568"/>
<path d="M95.5496 37.1272C95.5496 37.1272 98.5569 36.6702 99.5807 35.8164C99.5807 35.8164 98.485 38.4021 95.2051 38.4982L95.5496 37.1272Z" fill="#F39568"/>
<path d="M26.641 167.144C27.8537 168.045 27.2954 168.251 28.4918 168.898C29.6509 169.525 32.6929 172.017 32.8818 172.171L32.891 172.179C40.8447 180.624 54.2514 193.766 61.5167 194.765C68.3656 195.706 78.5715 176.496 85.0922 162.394L85.0935 162.392C85.1628 162.289 87.821 158.369 91.7913 159.524C95.8139 160.694 110.637 174.608 117.46 178.128C117.46 178.128 108.317 178.596 105.329 182.429C102.341 186.262 94.0134 189.925 92.5026 190.531C90.9911 191.137 90.202 190.459 88.797 191.386C87.3921 192.312 85.2661 193.456 85.2661 193.456C85.2092 197.725 86.8011 201.42 89.9176 205.127C89.9176 205.127 91.2166 204.425 92.462 204.057C94.1932 203.545 97.8412 202.584 98.4885 201.387C99.135 200.191 121.67 195.451 121.67 195.451C121.67 195.451 138.981 192.019 140.325 183.804C141.669 175.588 106.52 138.67 106.52 138.67L103.8 126.83L91.112 128.929L91.1114 128.924L67.953 130.68C67.953 130.68 63.9932 141.325 62.8766 150.926C62.1293 157.352 57.8779 172.62 57.8779 172.62C57.8779 172.62 53.9598 168.592 46.337 165.331C44.3887 164.497 42.3804 163.587 40.4707 162.695L40.472 162.694C40.472 162.694 37.5824 161.243 36.5749 159.844C35.5675 158.445 34.9523 158.983 33.8625 158.656C32.772 158.329 31.8521 157.006 31.1251 157.142C30.3975 157.28 30.1824 157.637 30.1824 157.637C28.327 159.385 27.4889 160.533 26.2559 164.806C26.2559 164.806 25.4289 166.242 26.641 167.144Z" fill="#2C2A40"/>
<path d="M47.3566 169.551L47.0918 169.963C47.6318 170.309 48.213 170.715 48.8197 171.171L49.1139 170.778C48.498 170.315 47.9064 169.902 47.3566 169.551Z" fill="#5B5B6C"/>
<path d="M44.1748 167.829L43.9453 168.262C44.469 168.539 44.973 168.796 45.4444 169.026C45.5751 169.09 45.7072 169.158 45.8399 169.228L46.0694 168.794C45.9321 168.722 45.7955 168.652 45.6595 168.586C45.1927 168.358 44.6932 168.103 44.1748 167.829Z" fill="#5B5B6C"/>
<path d="M40.7969 166.499C41.4265 166.869 42.0488 167.225 42.6483 167.558L42.8863 167.129C42.2907 166.798 41.671 166.444 41.046 166.076L40.7969 166.499Z" fill="#5B5B6C"/>
<path d="M49.9746 172.07C50.4852 172.482 51.0161 172.927 51.5986 173.431L51.9196 173.06C51.3325 172.553 50.7977 172.104 50.2825 171.689L49.9746 172.07Z" fill="#5B5B6C"/>
<path d="M55.7058 176.438L55.3828 176.806C56.085 177.423 56.5485 177.796 56.8852 178.014C56.9623 178.063 57.0408 178.107 57.1192 178.144L57.3271 177.7C57.2689 177.672 57.2094 177.64 57.1513 177.602C56.8355 177.398 56.3903 177.039 55.7058 176.438Z" fill="#5B5B6C"/>
<path d="M58.5078 177.615L58.7464 178.043C59.2636 177.756 59.7885 177.226 60.307 176.468L59.9023 176.192C59.427 176.886 58.9583 177.365 58.5078 177.615Z" fill="#5B5B6C"/>
<path d="M53.0274 174.034L52.7012 174.4C53.1647 174.813 53.6086 175.214 54.0257 175.591L54.2807 175.822L54.6095 175.458L54.3545 175.228C53.9361 174.849 53.4916 174.448 53.0274 174.034Z" fill="#5B5B6C"/>
<path d="M37.7227 164.613C38.3058 164.986 38.9145 165.365 39.5316 165.741L39.7866 165.323C39.1727 164.948 38.5667 164.571 37.9874 164.2L37.7227 164.613Z" fill="#5B5B6C"/>
<path d="M29.2326 159.511C29.1084 159.656 28.9862 159.803 28.8672 159.953C29.2496 160.006 29.8119 160.097 30.4238 160.24L30.5356 159.762C30.0466 159.648 29.5942 159.567 29.2326 159.511Z" fill="#5B5B6C"/>
<path d="M31.976 160.187L31.8066 160.647C32.5264 160.912 33.0763 161.219 33.4417 161.561C33.4757 161.593 33.513 161.627 33.5522 161.662L33.8784 161.296C33.8418 161.263 33.8078 161.232 33.7764 161.203C33.3633 160.816 32.7579 160.474 31.976 160.187Z" fill="#5B5B6C"/>
<path d="M35.0175 162.191L34.7285 162.587C35.226 162.95 35.817 163.361 36.4845 163.805L36.7565 163.398C36.0949 162.957 35.5098 162.551 35.0175 162.191Z" fill="#5B5B6C"/>
<path d="M67.2051 147.061L67.679 147.186C67.8595 146.501 68.0432 145.815 68.2295 145.132L67.7562 145.002C67.5699 145.688 67.3855 146.375 67.2051 147.061Z" fill="#5B5B6C"/>
<path d="M68.1484 143.581L68.6211 143.713C68.8127 143.024 69.0068 142.34 69.2003 141.667L68.7296 141.531C68.5348 142.206 68.3407 142.891 68.1484 143.581Z" fill="#5B5B6C"/>
<path d="M65.4941 154.065L65.9727 154.172C66.1211 153.503 66.2813 152.806 66.4486 152.1L65.9714 151.987C65.804 152.695 65.6432 153.394 65.4941 154.065Z" fill="#5B5B6C"/>
<path d="M66.3184 150.554L66.7943 150.67C66.9584 150.001 67.1323 149.307 67.3114 148.608L66.8368 148.486C66.657 149.187 66.4825 149.883 66.3184 150.554Z" fill="#5B5B6C"/>
<path d="M69.1426 140.115L69.6133 140.253C69.8173 139.56 70.0212 138.879 70.2233 138.216L69.7538 138.074C69.5518 138.738 69.3472 139.42 69.1426 140.115Z" fill="#5B5B6C"/>
<path d="M60.6367 174.951L61.0715 175.178C61.3742 174.597 61.6729 173.938 61.9586 173.219L61.5036 173.038C61.2231 173.741 60.9316 174.385 60.6367 174.951Z" fill="#5B5B6C"/>
<path d="M71.3008 133.231L71.765 133.388C72.0127 132.656 72.2481 131.982 72.4664 131.384L72.0055 131.216C71.7865 131.818 71.5492 132.496 71.3008 133.231Z" fill="#5B5B6C"/>
<path d="M70.1875 136.664L70.6556 136.81C70.874 136.11 71.0916 135.429 71.3015 134.785L70.8354 134.633C70.6249 135.278 70.4065 135.962 70.1875 136.664Z" fill="#5B5B6C"/>
<path d="M62.0098 171.668L62.4733 171.827C62.6956 171.179 62.9087 170.491 63.1074 169.783L62.6354 169.651C62.4393 170.35 62.2288 171.029 62.0098 171.668Z" fill="#5B5B6C"/>
<path d="M64.7637 157.601L65.2455 157.691C65.3678 157.04 65.5083 156.34 65.6613 155.609L65.1821 155.508C65.0278 156.242 64.8866 156.947 64.7637 157.601Z" fill="#5B5B6C"/>
<path d="M63.0059 168.235L63.4818 168.352C63.6485 167.671 63.8041 166.969 63.9434 166.266L63.4622 166.171C63.3242 166.867 63.1706 167.561 63.0059 168.235Z" fill="#5B5B6C"/>
<path d="M63.7266 164.73L64.2104 164.811C64.328 164.108 64.4313 163.397 64.5176 162.697L64.0312 162.636C63.9456 163.329 63.8429 164.034 63.7266 164.73Z" fill="#5B5B6C"/>
<path d="M64.1953 161.174L64.6824 161.233C64.7575 160.606 64.8602 159.902 64.9877 159.137L64.5045 159.056C64.3757 159.828 64.2718 160.54 64.1953 161.174Z" fill="#5B5B6C"/>
<path d="M94.1367 157.108C93.4077 157.089 92.6742 157.192 91.9629 157.412L92.108 157.88C92.7677 157.676 93.4476 157.581 94.1242 157.598L94.1367 157.108Z" fill="#5B5B6C"/>
<path d="M97.4279 158.562L97.6697 158.136C97.4749 158.025 97.2886 157.928 97.1173 157.847C96.6302 157.618 96.1347 157.439 95.6444 157.316L95.5254 157.791C95.985 157.906 96.4498 158.075 96.9081 158.29C97.0683 158.366 97.2435 158.458 97.4279 158.562Z" fill="#5B5B6C"/>
<path d="M98.6992 189.915L98.9176 190.353C99.557 190.036 100.196 189.709 100.819 189.383L100.591 188.948C99.9714 189.273 99.3353 189.598 98.6992 189.915Z" fill="#5B5B6C"/>
<path d="M101.887 188.256L102.121 188.686C102.782 188.325 103.408 187.972 103.981 187.636L103.733 187.213C103.164 187.547 102.543 187.897 101.887 188.256Z" fill="#5B5B6C"/>
<path d="M104.984 186.452L105.247 186.867C105.981 186.402 106.576 185.988 107.015 185.634L106.707 185.253C106.283 185.594 105.704 185.998 104.984 186.452Z" fill="#5B5B6C"/>
<path d="M86.4353 196.106C86.8766 195.8 87.3068 195.517 87.72 195.261L87.4611 194.844C87.0976 195.07 86.7197 195.318 86.334 195.582C86.366 195.757 86.4007 195.931 86.4353 196.106Z" fill="#5B5B6C"/>
<path d="M88.752 194.1L88.9814 194.534C89.6895 194.159 90.3321 193.884 90.8898 193.716L90.7479 193.246C90.1602 193.423 89.4887 193.711 88.752 194.1Z" fill="#5B5B6C"/>
<path d="M101.475 161.543C101.97 161.956 102.514 162.42 103.09 162.921L103.412 162.551C102.833 162.047 102.287 161.582 101.788 161.167L101.475 161.543Z" fill="#5B5B6C"/>
<path d="M92.1445 192.821L92.3086 193.283C92.8735 193.082 93.5442 192.817 94.302 192.495L94.1104 192.044C93.3612 192.362 92.6996 192.623 92.1445 192.821Z" fill="#5B5B6C"/>
<path d="M95.4551 191.455L95.6564 191.902C96.2782 191.622 96.9293 191.319 97.5909 191.001L97.3791 190.559C96.7208 190.875 96.0735 191.176 95.4551 191.455Z" fill="#5B5B6C"/>
<path d="M90.2746 158.757C90.4348 158.651 90.6113 158.543 90.8029 158.437L90.5669 158.007C90.221 158.197 89.9222 158.395 89.6738 158.578C89.8732 158.639 90.0733 158.699 90.2746 158.757Z" fill="#5B5B6C"/>
<path d="M98.9296 158.943L98.6484 159.345C99.1486 159.695 99.7167 160.123 100.337 160.616L100.642 160.232C100.014 159.733 99.4382 159.299 98.9296 158.943Z" fill="#5B5B6C"/>
<path d="M120.071 180.712C119.836 180.886 119.277 181.093 118.361 181.342L118.49 181.815C119.493 181.542 120.071 181.323 120.364 181.105C120.424 181.06 120.483 181.013 120.54 180.963L120.217 180.594C120.169 180.636 120.121 180.675 120.071 180.712Z" fill="#5B5B6C"/>
<path d="M115.29 173.071L114.982 173.454C115.639 173.98 116.2 174.402 116.697 174.745L116.975 174.341C116.487 174.005 115.936 173.59 115.29 173.071Z" fill="#5B5B6C"/>
<path d="M118.22 175.085L118.204 175.077L117.994 175.52L118.01 175.528C118.701 175.852 119.284 176.212 119.744 176.598L120.059 176.222C119.566 175.809 118.947 175.426 118.22 175.085Z" fill="#5B5B6C"/>
<path d="M121.075 177.389L120.652 177.636C120.816 177.916 120.925 178.203 120.976 178.491C121.036 178.827 121.018 179.162 120.924 179.487L121.395 179.624C121.51 179.226 121.532 178.816 121.459 178.405C121.398 178.059 121.269 177.717 121.075 177.389Z" fill="#5B5B6C"/>
<path d="M115.888 181.953C115.557 182.032 115.216 182.113 114.869 182.196L114.984 182.672C115.33 182.589 115.671 182.509 116.001 182.43C116.365 182.344 116.717 182.26 117.055 182.179L116.939 181.702C116.603 181.784 116.251 181.867 115.888 181.953Z" fill="#5B5B6C"/>
<path d="M111.375 183.117L111.516 183.587C112.122 183.405 112.79 183.221 113.558 183.025L113.436 182.55C112.662 182.747 111.988 182.933 111.375 183.117Z" fill="#5B5B6C"/>
<path d="M107.975 184.42L108.202 184.855C108.727 184.58 109.375 184.306 110.127 184.038L109.963 183.576C109.178 183.854 108.528 184.131 107.975 184.42Z" fill="#5B5B6C"/>
<path d="M108.32 166.948C107.948 166.609 107.574 166.27 107.201 165.931L106.871 166.295C107.244 166.633 107.618 166.972 107.991 167.311L108.447 167.725L108.776 167.362L108.32 166.948Z" fill="#5B5B6C"/>
<path d="M109.537 168.715C110.073 169.2 110.601 169.677 111.12 170.14L111.447 169.774C110.929 169.312 110.401 168.835 109.866 168.352L109.537 168.715Z" fill="#5B5B6C"/>
<path d="M114.156 172.137C113.664 171.722 113.138 171.269 112.548 170.75L112.225 171.118C112.817 171.639 113.345 172.095 113.84 172.512L114.156 172.137Z" fill="#5B5B6C"/>
<path d="M106.108 164.943C105.573 164.462 105.043 163.988 104.52 163.524L104.195 163.892C104.717 164.354 105.247 164.828 105.779 165.308L106.108 164.943Z" fill="#5B5B6C"/>
<path d="M108.5 137.837C108.5 137.837 85.2918 145.395 72.7591 142.008C71.8242 141.753 64.2013 140.21 64.2013 140.21C64.2013 140.21 68.5031 123.879 67.3002 113.033C66.9864 110.157 66.3065 104.482 64.2733 99.3304C63.5476 97.4868 62.8023 95.6105 62.0701 93.7865C59.893 88.3864 57.8664 83.4636 56.9707 81.3061C58.8339 80.0182 60.3572 79.6848 60.7102 79.6194C60.7625 79.6129 60.7822 79.6129 60.7822 79.6129C62.8415 79.2664 65.4697 78.7238 68.2743 77.8804H68.2808C71.8896 76.7821 75.7926 75.1869 79.1726 72.8595L82.3107 71.1139L85.6056 69.2769C85.6056 69.2769 89.659 70.7413 93.8692 76.7559C92.784 78.0439 91.6203 79.2337 90.3716 80.2601C92.2283 81.4238 93.7777 81.973 93.7777 81.973C94.5818 81.5219 95.3402 80.9662 96.0593 80.3189C98.7267 85.2614 101.172 92.309 102.368 102.279C103.447 111.334 105.349 121.898 106.755 129.149C107.755 134.346 108.5 137.837 108.5 137.837Z" fill="#84519E"/>
<path d="M74.4901 81.6984C70.1883 81.3323 69.2011 79.2794 68.2793 77.8804C71.8881 76.782 75.7911 75.1869 79.171 72.8595L81.2284 71.7036C81.8175 71.7036 83.2708 72.7869 83.2708 74.962C83.2708 77.885 80.2105 82.1887 74.4901 81.6984Z" fill="#2C2A40"/>
<path opacity="0.2" d="M88.2539 87.919L95.8029 84.5391C95.8029 84.5391 101.671 93.3564 96.8869 95.0817C91.7457 96.9358 88.2539 87.919 88.2539 87.919Z" fill="#2C2A40"/>
<path d="M80.191 51.446C80.191 51.446 83.3612 49.046 82.0615 44.2271C82.0615 44.2271 80.9978 46.0563 80.0309 46.2387C80.0309 46.2387 82.4812 39.6056 74.9897 35.9118C74.9897 35.9118 75.867 39.5612 74.976 40.7758C74.976 40.7758 72.9977 36.5545 70.0655 35.6843C70.0655 35.6843 70.5062 43.0817 65.9207 44.5762C62.6499 45.6425 58.422 49.4422 57.2563 55.6863C57.2563 55.6863 55.3571 55.1378 54.6484 55.8844C54.6484 55.8844 57.0837 56.2943 57.4197 57.8476C57.4197 57.8476 56.3973 57.3298 55.6271 57.9836C55.6271 57.9836 57.3478 58.3386 57.6139 59.6847C57.8793 61.0302 64.3935 71.3191 68.3219 73.0333C72.2504 74.7481 80.191 51.446 80.191 51.446Z" fill="#2C2A40"/>
<path d="M70.0258 74.5945L70.5494 77.6123C70.6828 78.3791 71.2496 79.0035 72.0027 79.1996C78.5018 80.8935 81.3666 76.8552 81.6896 75.2908C80.8534 74.9573 65.9659 68.9342 63.5273 63.2249C63.5273 63.2249 65.0964 70.9007 70.0258 74.5945Z" fill="#F9B587"/>
<path d="M82.071 57.7633C82.6071 58.5086 83.0125 59.3323 83.2713 60.2019C83.4982 60.9524 83.6178 61.7375 83.6211 62.5312L83.6453 67.8091C83.6538 69.7723 82.4117 71.5237 80.5543 72.1592C78.425 72.8875 75.4425 73.506 72.3862 72.8417C66.6193 71.5878 63.8604 64.6017 63.8604 64.6017C63.8604 64.6017 61.4578 57.3586 66.2944 52.3639C69.6449 48.9041 74.1409 48.2249 76.5873 48.134C77.6366 48.0954 78.6192 48.642 79.1324 49.5579L80.9845 52.8646C81.1316 53.1268 81.2636 53.3955 81.3794 53.6701C81.7716 54.5925 81.9926 55.5817 82.0299 56.5904L82.071 57.7633Z" fill="#F9B587"/>
<path d="M75.2224 54.4017C75.2224 54.4017 70.6447 52.4679 69.5059 56.2734L70.21 56.8559C70.21 56.8559 71.728 53.948 75.3721 55.4111L75.2224 54.4017Z" fill="#2C2A40"/>
<path d="M82.0715 57.7634C82.6075 58.5087 83.0129 59.3324 83.2718 60.202C82.365 59.9764 80.7705 60.1156 78.0469 61.633C78.0469 61.633 79.0994 59.775 80.6286 59.1441C81.0398 58.9742 81.1693 58.4564 80.8868 58.1132L78.9948 55.8158C78.9948 55.8158 79.0981 55.1693 79.6754 54.7149C80.0284 54.4377 80.7626 53.982 81.3798 53.6702C81.772 54.5926 81.993 55.5818 82.0303 56.5905L82.0715 57.7634Z" fill="#F39568"/>
<path d="M80.9244 52.9338C79.8365 53.4451 79.0645 54.1152 79.0645 54.1152L79.2979 55.0141C79.9889 54.4329 80.6551 54.0668 81.2755 53.8485C81.5821 53.7406 81.7423 53.4157 81.6213 53.1522L81.6168 53.143C81.5063 52.9005 81.1957 52.8063 80.9244 52.9338Z" fill="#2C2A40"/>
<path d="M82.3628 62.3828L74.2051 64.7207C74.2051 64.7207 76.7711 68.6125 80.912 66.865C84.1593 65.4947 82.3628 62.3828 82.3628 62.3828Z" fill="white"/>
<path d="M80.0324 72.2017C80.0324 72.2017 74.9173 73.5053 69.6336 67.7417C69.6336 67.7417 69.3995 70.7209 72.2356 73.7603C75.0716 76.799 81.6897 75.2907 81.6897 75.2907L80.0324 72.2017Z" fill="#F39568"/>
<path d="M65.4338 62.658C65.4338 62.658 62.8456 60.4136 61.1804 62.5305C59.5159 64.6474 63.2476 70.6228 65.9117 68.1849C68.5765 65.747 65.4338 62.658 65.4338 62.658Z" fill="#F9B587"/>
<path d="M75.2234 57.2751C75.2234 57.2751 74.2133 56.0525 72.9542 56.5389C71.1184 57.2476 71.3734 58.9356 71.3734 58.9356C71.3734 58.9356 72.1932 55.7904 75.2234 57.2751Z" fill="#2C2A40"/>
<path d="M79.7324 56.6383C79.7324 56.6383 80.4058 54.6404 81.8702 56.1708C81.8702 56.1708 80.5673 55.336 79.7324 56.6383Z" fill="#2C2A40"/>
<path d="M64.4344 54.5271C64.4344 54.5271 66.4193 56.9271 64.8064 59.433L66.4768 63.2745L64.7489 63.7177L63.3126 61.5871L62.2031 56.0798C62.2031 56.0798 63.542 53.5602 64.4344 54.5271Z" fill="#2C2A40"/>
<path d="M106.407 58.3262C106.407 58.3262 106.198 59.3722 105.767 61.0328C104.361 66.3937 100.589 78.1549 93.7767 81.9729C93.7767 81.9729 92.2273 81.4238 90.3706 80.26C87.5005 78.4622 83.9048 75.213 84.2317 70.2967C84.2317 70.2967 90.0764 60.5882 92.5542 53.7564C92.783 53.1353 92.9791 52.5339 93.1425 51.9651L104.008 57.1756L106.407 58.3262Z" fill="#84519E"/>
<path d="M106.408 58.3262C106.408 58.3262 106.199 59.3722 105.767 61.0328C103.218 59.0584 95.1174 55.0182 92.5547 53.7564C92.7835 53.1353 92.9796 52.5339 93.1431 51.9651L104.009 57.1756L106.408 58.3262Z" fill="#2C2A40"/>
<path opacity="0.2" d="M106.409 58.3263C106.409 58.3263 103.338 73.7754 96.0573 80.3183C95.3368 78.982 94.6001 77.8 93.8672 76.7546C99.4052 70.1548 102.799 60.8701 104.004 57.1743L106.409 58.3263Z" fill="#2C2A40"/>
<path d="M65.3715 89.8115C65.1688 91.0929 64.9204 91.969 64.9204 91.969L64.2731 99.3304L63.5409 106.417L63.3317 108.47C62.0961 110.202 57.912 110.359 53.9567 110.072V110.065C49.8053 109.764 45.9023 108.967 45.9023 108.967C45.9023 108.967 46.007 108.169 46.2423 106.803C46.8046 103.508 48.1317 96.8918 50.6291 90.1057C52.3812 85.3594 54.8851 82.7378 56.9706 81.306C58.8338 80.0181 60.3571 79.6847 60.7101 79.6193C60.7624 79.6128 60.782 79.6128 60.782 79.6128C66.156 80.1162 65.9076 86.4054 65.3715 89.8115Z" fill="#84519E"/>
<path d="M63.5409 106.417L63.3317 108.47C62.0961 110.203 57.912 110.359 53.9567 110.072V110.065C49.8053 109.764 45.9023 108.967 45.9023 108.967C45.9023 108.967 46.007 108.169 46.2423 106.803C47.9748 107.261 52.1007 107.855 55.7703 107.903C59.891 107.958 62.2857 106.979 63.5409 106.417Z" fill="#2C2A40"/>
<path opacity="0.2" d="M108.501 137.838C108.501 137.838 85.2881 145.397 72.758 142.006C71.8231 141.754 64.1976 140.212 64.1976 140.212C64.1976 140.212 68.504 123.876 67.3023 113.031C66.984 110.157 66.304 104.481 64.2747 99.3272L63.3314 108.472C62.0944 110.199 57.913 110.359 53.957 110.07V110.069C53.957 110.069 60.2704 106.707 60.951 99.1579C61.1485 96.9612 61.5708 95.1928 62.0703 93.7892C63.2836 90.37 64.9553 89.1187 64.9553 89.1187C64.9553 89.1187 65.1109 89.3664 65.3685 89.8103C66.5989 91.9122 70.1645 98.4034 70.5816 103.63C71.0889 109.957 73.0914 123.435 82.8593 131.417C88.2934 135.857 106.448 135.159 106.738 129.327C106.74 129.264 106.745 129.206 106.751 129.149C107.755 134.348 108.501 137.838 108.501 137.838Z" fill="#2C2A40"/>
<defs>
<filter id="filter0_b_515_5860" x="27.0527" y="61.4844" width="247.928" height="185.422" filterUnits="userSpaceOnUse" color-interpolation-filters="sRGB">
<feFlood flood-opacity="0" result="BackgroundImageFix"/>
<feGaussianBlur in="BackgroundImageFix" stdDeviation="5"/>
<feComposite in2="SourceAlpha" operator="in" result="effect1_backgroundBlur_515_5860"/>
<feBlend mode="normal" in="SourceGraphic" in2="effect1_backgroundBlur_515_5860" result="shape"/>
</filter>
</defs>
</svg>
