<svg width="43" height="42" viewBox="0 0 43 42" fill="none" xmlns="http://www.w3.org/2000/svg">
<path d="M13.2989 23.9736C13.2991 24.3763 13.1798 24.77 12.9562 25.105C12.7326 25.4399 12.4146 25.701 12.0426 25.8552C11.6706 26.0094 11.2612 26.0499 10.8662 25.9714C10.4712 25.893 10.1083 25.6991 9.82351 25.4144C9.53869 25.1297 9.34469 24.7669 9.26607 24.3719C9.18744 23.977 9.22771 23.5675 9.38179 23.1955C9.53587 22.8234 9.79683 22.5054 10.1317 22.2816C10.4665 22.0578 10.8602 21.9384 11.2629 21.9384C11.8026 21.9388 12.3201 22.1534 12.7018 22.5349C13.0835 22.9165 13.2983 23.4339 13.2989 23.9736ZM34.0528 21.9384C33.6503 21.9386 33.2569 22.0581 32.9224 22.2818C32.5878 22.5055 32.327 22.8234 32.1731 23.1953C32.0192 23.5672 31.979 23.9764 32.0577 24.3712C32.1363 24.7659 32.3302 25.1284 32.6148 25.413C32.8995 25.6975 33.2621 25.8913 33.6569 25.9698C34.0517 26.0482 34.4608 26.0079 34.8327 25.8538C35.2045 25.6997 35.5223 25.4389 35.7459 25.1042C35.9695 24.7695 36.0888 24.3761 36.0888 23.9736C36.0882 23.434 35.8736 22.9168 35.492 22.5352C35.1105 22.1537 34.5932 21.9391 34.0536 21.9384H34.0528ZM40.3422 16.0715H34.8256L35.942 20.114L28.3951 15.9895H23.6898L23.5865 18.8343L20.9615 20.0451L19.9984 18.8606H18.7171L18.4579 20.1731C7.17365 19.1067 2.65782 22.5659 2.65782 22.5659C2.65782 22.5659 3.2747 22.9761 4.78489 23.2542C5.10317 23.5257 5.08513 24.4387 5.08513 24.4387H3.09997V25.7512H7.3656V23.497C7.51654 23.5027 7.73064 23.5306 7.94474 23.5356C8.00809 23.0555 8.17484 22.5949 8.43346 22.1855C8.69209 21.7762 9.03645 21.4278 9.44278 21.1644C9.8491 20.901 10.3077 20.7289 10.787 20.66C11.2663 20.591 11.7548 20.6269 12.2189 20.7651C12.683 20.9032 13.1116 21.1404 13.4751 21.4603C13.8387 21.7802 14.1285 22.1751 14.3246 22.6179C14.5207 23.0606 14.6184 23.5406 14.611 24.0248C14.6036 24.5089 14.4912 24.9857 14.2817 25.4223H31.0357C30.8185 24.9691 30.706 24.4728 30.7068 23.9702C30.7075 23.4676 30.8214 22.9717 31.04 22.5191C31.2586 22.0666 31.5762 21.6691 31.9694 21.356C32.3626 21.043 32.8213 20.8225 33.3113 20.711C33.8013 20.5994 34.3102 20.5996 34.8001 20.7115C35.2901 20.8235 35.7486 21.0443 36.1415 21.3576C36.5345 21.671 36.8518 22.0687 37.0701 22.5214C37.2883 22.9742 37.4018 23.4702 37.4022 23.9728C37.4022 24.0745 37.3972 24.1746 37.3882 24.2738H40.3413L40.3422 16.0715Z" fill="white"/>
</svg>
