<svg width="20" height="21" viewBox="0 0 20 21" fill="none" xmlns="http://www.w3.org/2000/svg">
<path d="M12.444 8.79321C12.3474 8.40685 12.0457 8.10516 11.6594 8.00856L7.93061 7.07639C7.14094 6.87895 6.42558 7.59431 6.62302 8.38409L7.55513 12.1127C7.65175 12.4991 7.95347 12.8008 8.33972 12.8973L12.0685 13.8296C12.8582 14.027 13.5736 13.3116 13.3762 12.5219L12.444 8.79321Z" stroke="#CECECE" stroke-width="1.5" stroke-linecap="round" stroke-linejoin="round"/>
<path d="M9.99979 1.28711C17.0089 1.28711 19.1656 3.44377 19.1656 10.4529C19.1656 17.4621 17.0089 19.6187 9.99979 19.6187C2.99064 19.6187 0.833984 17.4621 0.833984 10.4529C0.833984 3.44377 2.99064 1.28711 9.99979 1.28711Z" stroke="#CECECE" stroke-width="1.5" stroke-linecap="round" stroke-linejoin="round"/>
</svg>
