<svg width="24" height="23" viewBox="0 0 24 23" fill="none" xmlns="http://www.w3.org/2000/svg">
<path d="M12.29 3.5H5C3.93914 3.5 2.92172 3.92137 2.17157 4.67151C1.42143 5.42166 1 6.43914 1 7.5V17.5C1 18.5609 1.42143 19.5782 2.17157 20.3284C2.92172 21.0785 3.93914 21.5 5 21.5H17C18.0609 21.5 19.0783 21.0785 19.8285 20.3284C20.5786 19.5782 21 18.5609 21 17.5V12.21" stroke="black" stroke-width="1.5" stroke-linecap="round" stroke-linejoin="round"/>
<path d="M15.6288 11.62C14.3627 12.7719 12.7295 13.438 11.0189 13.5C7.80883 13.5 4.60883 10.83 1.79883 5.5" stroke="black" stroke-width="1.5" stroke-linecap="round" stroke-linejoin="round"/>
<path d="M20.0202 7.45379C21.6516 7.45379 22.9741 6.13132 22.9741 4.49997C22.9741 2.86862 21.6516 1.54614 20.0202 1.54614C18.3888 1.54614 17.0664 2.86862 17.0664 4.49997C17.0664 6.13132 18.3888 7.45379 20.0202 7.45379Z" stroke="black" stroke-width="1.5" stroke-linecap="round" stroke-linejoin="round"/>
</svg>
