<svg width="21" height="20" viewBox="0 0 21 20" fill="none" xmlns="http://www.w3.org/2000/svg">
<path d="M20.118 10.1643C20.118 9.35712 20.0525 8.76808 19.9107 8.15723H10.6934V11.8005H16.1037C15.9947 12.7059 15.4057 14.0694 14.0966 14.9857L14.0783 15.1076L16.9927 17.3654L17.1946 17.3855C19.0489 15.6729 20.118 13.1531 20.118 10.1643Z" fill="#4285F4"/>
<path d="M10.694 19.7634C13.3446 19.7634 15.5698 18.8907 17.1952 17.3854L14.0973 14.9855C13.2683 15.5637 12.1556 15.9673 10.694 15.9673C8.09787 15.9673 5.89444 14.2548 5.10898 11.8877L4.99385 11.8975L1.96346 14.2427L1.92383 14.3529C3.53821 17.5598 6.85429 19.7634 10.694 19.7634Z" fill="#34A853"/>
<path d="M5.10926 11.888C4.90201 11.2772 4.78207 10.6226 4.78207 9.94637C4.78207 9.27003 4.90201 8.61557 5.09836 8.00471L5.09287 7.87462L2.0245 5.4917L1.92411 5.53944C1.25874 6.87025 0.876953 8.3647 0.876953 9.94637C0.876953 11.528 1.25874 13.0224 1.92411 14.3532L5.10926 11.888Z" fill="#FBBC05"/>
<path d="M10.694 3.92491C12.5374 3.92491 13.7809 4.72119 14.49 5.38664L17.2606 2.68141C15.559 1.09973 13.3446 0.128906 10.694 0.128906C6.85429 0.128906 3.53822 2.33233 1.92383 5.53929L5.09808 8.00456C5.89444 5.6375 8.09787 3.92491 10.694 3.92491Z" fill="#EB4335"/>
</svg>
