<svg width="18" height="20" viewBox="0 0 18 20" fill="none" xmlns="http://www.w3.org/2000/svg">
<path fill-rule="evenodd" clip-rule="evenodd" d="M9.18588 17.5848C9.04715 17.6866 8.91784 17.7789 8.79968 17.8618C8.67362 17.7782 8.5338 17.682 8.38218 17.5736C7.66729 17.0621 6.74013 16.3112 5.82702 15.3748C3.95411 13.4538 2.37939 11.0018 2.37939 8.38623C2.37939 4.79746 5.28867 1.88818 8.87744 1.88818C12.4662 1.88818 15.3755 4.79746 15.3755 8.38623C15.3755 10.9738 13.7314 13.4188 11.79 15.36C10.8481 16.302 9.90023 17.061 9.18588 17.5848ZM17 8.38623C17 14.8843 8.87744 19.7578 8.87744 19.7578C8.47131 19.7578 0.754883 14.8843 0.754883 8.38623C0.754883 3.90026 4.39147 0.263672 8.87744 0.263672C13.3634 0.263672 17 3.90026 17 8.38623ZM10.502 8.38623C10.502 9.28339 9.7746 10.0107 8.87744 10.0107C7.98028 10.0107 7.25293 9.28339 7.25293 8.38623C7.25293 7.48903 7.98028 6.76172 8.87744 6.76172C9.7746 6.76172 10.502 7.48903 10.502 8.38623ZM12.1265 8.38623C12.1265 10.1807 10.6719 11.6353 8.87744 11.6353C7.083 11.6353 5.62842 10.1807 5.62842 8.38623C5.62842 6.59185 7.083 5.13721 8.87744 5.13721C10.6719 5.13721 12.1265 6.59185 12.1265 8.38623Z" fill="#444E59" stroke="white" stroke-width="0.2"/>
</svg>
