<svg width="20" height="21" viewBox="0 0 20 21" fill="none" xmlns="http://www.w3.org/2000/svg">
<path d="M17.5295 0.91626C18.6548 0.91626 19.583 1.84239 19.583 2.96702V7.07677C19.583 8.18839 19.0395 9.16997 18.214 9.79629V18.0288C18.214 19.1541 17.2865 20.0823 16.1605 20.0823H3.83949C2.71349 20.0823 1.78599 19.1541 1.78599 18.0288V9.79629C0.960485 9.16997 0.416992 8.18771 0.416992 7.07677V2.96702C0.423733 1.83615 1.33962 0.921493 2.47049 0.91626H17.5295ZM17.5295 2.28526H2.47049C2.07896 2.28526 1.78599 2.57823 1.78599 2.96702V7.07677C1.78599 8.22673 2.68953 9.13027 3.83949 9.13027H4.524C5.67396 9.13027 6.5775 8.22673 6.5775 7.07677C6.5905 6.17665 7.93349 6.17665 7.9465 7.07677C7.9465 8.22673 8.85004 9.13027 10 9.13027C11.15 9.13027 12.0535 8.22673 12.0535 7.07677C12.0665 6.17665 13.4095 6.17665 13.4225 7.07677C13.4225 8.22673 14.326 9.13027 15.476 9.13027H16.1605C17.3105 9.13027 18.214 8.22673 18.214 7.07677V2.96702C18.218 2.78454 18.1471 2.60838 18.0177 2.47957C17.8884 2.35076 17.712 2.28054 17.5295 2.28526ZM12.738 9.02212C12.1377 9.86268 11.2116 10.4514 10.1164 10.4911L10.1082 10.4924C10.0408 10.5025 9.97225 10.5025 9.90485 10.4924C8.80007 10.4596 7.86641 9.86884 7.262 9.02212C6.64047 9.89348 5.67122 10.4993 4.524 10.4993H3.83949C3.60956 10.4991 3.38023 10.4757 3.15499 10.4295V18.0288C3.15499 18.4203 3.44864 18.7133 3.83949 18.7133H7.262V15.2908C7.262 14.1655 8.1895 13.2373 9.3155 13.2373H10.6845C11.8105 13.2373 12.738 14.1655 12.738 15.2908V18.7133H16.1605C16.5514 18.7133 16.845 18.4203 16.845 18.0288V10.4294C16.6198 10.4757 16.3904 10.4991 16.1605 10.4993L15.476 10.4993C14.3288 10.4993 13.3595 9.89348 12.738 9.02212ZM10.6845 14.6063H9.3155C8.92465 14.6063 8.631 14.8999 8.631 15.2908V18.7133H11.369V15.2908C11.369 14.8999 11.0754 14.6063 10.6845 14.6063Z" fill="#CECECE"/>
</svg>
