<svg width="23" height="22" viewBox="0 0 23 22" fill="none" xmlns="http://www.w3.org/2000/svg">
<path d="M1.5 15C1.5 12.1716 1.5 10.7574 2.37868 9.8787C3.25736 9 4.67157 9 7.5 9H15.5C18.3284 9 19.7426 9 20.6213 9.8787C21.5 10.7574 21.5 12.1716 21.5 15C21.5 17.8284 21.5 19.2426 20.6213 20.1213C19.7426 21 18.3284 21 15.5 21H7.5C4.67157 21 3.25736 21 2.37868 20.1213C1.5 19.2426 1.5 17.8284 1.5 15Z" stroke="#1C274C" stroke-width="1.5"/>
<path d="M5.5 9V7C5.5 3.68629 8.18629 1 11.5 1C14.2958 1 16.6449 2.91216 17.311 5.5" stroke="#1C274C" stroke-width="1.5" stroke-linecap="round"/>
<path d="M7.5 15H7.509M11.491 15H11.5M15.491 15H15.5" stroke="#1C274C" stroke-width="2" stroke-linecap="round" stroke-linejoin="round"/>
</svg>
