<svg width="19" height="20" viewBox="0 0 19 20" fill="none" xmlns="http://www.w3.org/2000/svg">
<path fill-rule="evenodd" clip-rule="evenodd" d="M9.7218 6.58179C11.6095 6.58179 13.1399 8.11211 13.1399 9.99987C13.1399 11.8877 11.6095 13.418 9.7218 13.418C7.83401 13.418 6.30371 11.8877 6.30371 9.99987C6.30371 8.11211 7.83401 6.58179 9.7218 6.58179ZM11.7726 9.99987C11.7726 8.86725 10.8544 7.94902 9.7218 7.94902C8.58918 7.94902 7.67094 8.86725 7.67094 9.99987C7.67094 11.1325 8.58918 12.0507 9.7218 12.0507C10.8544 12.0507 11.7726 11.1325 11.7726 9.99987Z" fill="#484849"/>
<path fill-rule="evenodd" clip-rule="evenodd" d="M9.74475 0.201416C10.1498 0.201407 10.4881 0.201407 10.7657 0.220348C11.0547 0.240073 11.3277 0.282584 11.5924 0.392218C12.2066 0.646624 12.6946 1.13459 12.949 1.74878C13.0814 2.06853 13.1173 2.4055 13.131 2.77178C13.142 3.06622 13.2906 3.31188 13.5099 3.43849C13.7292 3.56509 14.0162 3.57094 14.2767 3.43326C14.6008 3.26198 14.9105 3.12455 15.2537 3.07938C15.9128 2.9926 16.5793 3.17122 17.1068 3.57592C17.334 3.75032 17.5074 3.9655 17.669 4.20595C17.8242 4.43693 17.9933 4.72983 18.1959 5.08068L18.2189 5.12055C18.4214 5.47139 18.5905 5.76427 18.713 6.01419C18.8404 6.27436 18.9401 6.53206 18.9775 6.8161C19.0643 7.4752 18.8856 8.14178 18.4809 8.66924C18.2703 8.94368 17.9964 9.1433 17.6861 9.33827C17.4366 9.49504 17.2981 9.74661 17.2981 9.99992C17.2981 10.2531 17.4366 10.5047 17.6861 10.6615C17.9965 10.8564 18.2703 11.0561 18.481 11.3306C18.8857 11.858 19.0643 12.5246 18.9776 13.1837C18.9402 13.4677 18.8405 13.7254 18.7131 13.9856C18.5906 14.2355 18.4215 14.5284 18.219 14.8792L18.1959 14.9191C17.9934 15.27 17.8243 15.5628 17.6691 15.7938C17.5075 16.0342 17.3341 16.2494 17.1069 16.4238C16.5794 16.8285 15.9129 17.0072 15.2538 16.9204C14.9106 16.8752 14.6009 16.7378 14.2769 16.5666C14.0163 16.4288 13.7292 16.4347 13.5099 16.5614C13.2906 16.688 13.142 16.9336 13.131 17.2281C13.1173 17.5943 13.0814 17.9313 12.949 18.2511C12.6946 18.8652 12.2066 19.3532 11.5924 19.6076C11.3277 19.7173 11.0547 19.7598 10.7657 19.7795C10.4881 19.7984 10.1498 19.7984 9.74475 19.7984H9.69872C9.29356 19.7984 8.9554 19.7984 8.67766 19.7795C8.38863 19.7598 8.11564 19.7173 7.85094 19.6076C7.23678 19.3532 6.74877 18.8652 6.49437 18.2511C6.36194 17.9313 6.32611 17.5943 6.31244 17.228C6.30141 16.9336 6.15284 16.688 5.93354 16.5613C5.71423 16.4347 5.42711 16.4288 5.16661 16.5665C4.84257 16.7377 4.53285 16.8752 4.18967 16.9203C3.53058 17.0071 2.86401 16.8285 2.33662 16.4238C2.10929 16.2494 1.93602 16.0342 1.77441 15.7938C1.61918 15.5628 1.4501 15.27 1.24757 14.9191L1.22451 14.8792C1.02197 14.5284 0.852802 14.2354 0.730391 13.9855C0.602963 13.7254 0.503336 13.4677 0.465878 13.1837C0.379105 12.5245 0.557754 11.8579 0.962454 11.3305C1.1731 11.056 1.447 10.8564 1.75728 10.6615C2.00684 10.5047 2.1453 10.2531 2.1453 9.99983C2.1453 9.74661 2.00684 9.49514 1.75737 9.33836C1.44691 9.14339 1.17301 8.94387 0.962365 8.66924C0.557664 8.14184 0.379013 7.47527 0.465788 6.81616C0.503248 6.53212 0.602876 6.27443 0.730301 6.01425C0.85271 5.76435 1.02179 5.47149 1.22442 5.12067L1.24739 5.08078C1.45001 4.72992 1.61909 4.43699 1.77432 4.20601C1.93593 3.96556 2.1092 3.75039 2.33653 3.57597C2.86392 3.17128 3.53049 2.99267 4.18967 3.07944C4.53276 3.12461 4.84248 3.26203 5.16652 3.4333C5.42702 3.571 5.71414 3.56514 5.93344 3.43851C6.15275 3.3119 6.30141 3.0662 6.31244 2.77173C6.32611 2.40547 6.36194 2.06851 6.49437 1.74878C6.74877 1.13459 7.23678 0.646624 7.85094 0.392218C8.11564 0.282584 8.38863 0.240073 8.67766 0.220348C8.9554 0.201407 9.29356 0.201407 9.69872 0.201416H9.74475ZM11.0692 1.65538C10.9989 1.62625 10.892 1.59938 10.6726 1.58441C10.447 1.56902 10.1557 1.56865 9.72168 1.56865C9.28763 1.56865 8.99632 1.56902 8.77082 1.58441C8.55133 1.59938 8.4445 1.62625 8.37423 1.65538C8.09504 1.77102 7.87318 1.99282 7.75761 2.272C7.72106 2.36006 7.69089 2.49734 7.67867 2.82283C7.65169 3.54507 7.27889 4.24049 6.61706 4.62257C5.95532 5.00467 5.16661 4.9798 4.52765 4.64208C4.23972 4.48988 4.10564 4.44742 4.01121 4.43498C3.7116 4.39554 3.40862 4.47673 3.1689 4.66067C3.10847 4.70701 3.03181 4.7861 2.90913 4.96865C2.78298 5.15629 2.63704 5.40838 2.42002 5.78428C2.20299 6.16019 2.05761 6.41264 1.95817 6.61568C1.86146 6.81319 1.83129 6.91915 1.82135 6.99462C1.78188 7.29421 1.8631 7.5972 2.04704 7.83694C2.1051 7.91256 2.20883 8.00739 2.48474 8.18068C3.09662 8.56523 3.51244 9.23572 3.51253 9.99983C3.51253 10.764 3.09671 11.4346 2.48474 11.8192C2.20892 11.9924 2.10519 12.0872 2.04713 12.1629C1.86319 12.4026 1.78197 12.7056 1.82144 13.0052C1.83138 13.0807 1.86155 13.1866 1.95826 13.3841C2.0577 13.5871 2.20309 13.8396 2.42011 14.2155C2.63714 14.5914 2.78307 14.8435 2.90922 15.0312C3.0319 15.2136 3.10856 15.2927 3.16899 15.3391C3.40871 15.5231 3.71169 15.6042 4.0113 15.5648C4.10573 15.5523 4.23981 15.5099 4.52775 15.3577C5.1667 15.0199 5.95541 14.9951 6.61724 15.3772C7.27889 15.7593 7.65169 16.4547 7.67867 17.177C7.69089 17.5025 7.72106 17.6397 7.75761 17.7279C7.87318 18.007 8.09504 18.2288 8.37423 18.3445C8.4445 18.3736 8.55133 18.4005 8.77082 18.4154C8.99632 18.4308 9.28763 18.4312 9.72168 18.4312C10.1557 18.4312 10.447 18.4308 10.6726 18.4154C10.892 18.4005 10.9989 18.3736 11.0692 18.3445C11.3483 18.2288 11.5702 18.007 11.6858 17.7279C11.7223 17.6397 11.7525 17.5025 11.7647 17.177C11.7917 16.4548 12.1645 15.7593 12.8263 15.3772C13.4881 14.9951 14.2767 15.02 14.9157 15.3577C15.2037 15.51 15.3377 15.5524 15.4322 15.5648C15.7318 15.6043 16.0348 15.5231 16.2745 15.3391C16.3349 15.2928 16.4116 15.2137 16.5343 15.0312C16.6604 14.8436 16.8064 14.5914 17.0234 14.2156C17.2404 13.8397 17.3857 13.5872 17.4852 13.3842C17.5819 13.1867 17.6121 13.0807 17.622 13.0052C17.6615 12.7056 17.5803 12.4026 17.3963 12.1629C17.3383 12.0873 17.2345 11.9924 16.9587 11.8192C16.3468 11.4347 15.9309 10.7641 15.9309 10C15.9308 9.23572 16.3467 8.56514 16.9587 8.18059C17.2345 8.0073 17.3382 7.91249 17.3962 7.83687C17.5802 7.59714 17.6614 7.29415 17.6219 6.99456C17.612 6.91909 17.5819 6.81313 17.4851 6.61562C17.3857 6.41258 17.2403 6.16013 17.0233 5.78422C16.8063 5.40832 16.6603 5.15623 16.5342 4.96858C16.4115 4.78605 16.3348 4.70695 16.2744 4.66062C16.0347 4.47666 15.7317 4.39547 15.4321 4.43492C15.3376 4.44736 15.2036 4.48981 14.9156 4.64204C14.2766 4.97976 13.488 5.00461 12.8263 4.62255C12.1645 4.24048 11.7917 3.54509 11.7647 2.82288C11.7525 2.49736 11.7223 2.36007 11.6858 2.272C11.5702 1.99282 11.3483 1.77102 11.0692 1.65538Z" fill="#484849"/>
</svg>
