<svg width="19" height="21" viewBox="0 0 19 21" fill="none" xmlns="http://www.w3.org/2000/svg">
<path d="M9.13882 0.60498H4.08385C2.90425 0.60498 2.31444 0.60498 1.86389 0.834548C1.46757 1.03647 1.14536 1.35868 0.943435 1.755C0.713867 2.20554 0.713867 2.79534 0.713867 3.97493V16.191C0.713867 17.3706 0.713867 17.9604 0.943435 18.4109C1.14536 18.8072 1.46757 19.1295 1.86389 19.3313C2.31444 19.5609 2.90425 19.5609 4.08385 19.5609H5.97946M9.13882 0.60498L15.4575 6.92363M9.13882 0.60498V5.23866C9.13882 5.82845 9.13882 6.12335 9.25361 6.34862C9.3546 6.54677 9.51562 6.70788 9.71382 6.80885C9.93908 6.92363 10.234 6.92363 10.8238 6.92363H15.4575M15.4575 6.92363V7.97674M4.92634 15.3485H7.55914M4.92634 11.1361H10.1919M4.92634 6.92363H5.97946M10.1919 19.5609L12.3245 19.1344C12.5104 19.0972 12.6034 19.0786 12.69 19.0446C12.767 19.0145 12.8402 18.9753 12.9079 18.928C12.9844 18.8747 13.0514 18.8077 13.1855 18.6736L17.5638 14.2954C18.1454 13.7138 18.1454 12.7708 17.5638 12.1892C16.9821 11.6075 16.0392 11.6075 15.4575 12.1892L11.0793 16.5674C10.9451 16.7015 10.8782 16.7685 10.8249 16.845C10.7776 16.9127 10.7384 16.9859 10.7083 17.0628C10.6743 17.1495 10.6556 17.2425 10.6184 17.4284L10.1919 19.5609Z" stroke="black" stroke-linecap="round" stroke-linejoin="round"/>
</svg>
