<svg width="19" height="17" viewBox="0 0 19 17" fill="none" xmlns="http://www.w3.org/2000/svg">
<path d="M13.7039 10.6315H13.7125M16.0833 0.968994H3.89712C2.83074 0.968994 2.29754 0.968994 1.89024 1.17652C1.53195 1.35907 1.24067 1.65036 1.05812 2.00864C0.850586 2.41594 0.850586 2.94913 0.850586 4.01552V13.1551C0.850586 14.2215 0.850586 14.7547 1.05812 15.162C1.24067 15.5203 1.53195 15.8115 1.89024 15.9941C2.29754 16.2017 2.83073 16.2017 3.89712 16.2017H14.9408C16.0072 16.2017 16.5404 16.2017 16.9477 15.9941C17.306 15.8115 17.5973 15.5203 17.7798 15.162C17.9873 14.7547 17.9873 14.2215 17.9873 13.1551V7.8237C17.9873 6.75732 17.9873 6.2241 17.7798 5.8168C17.5973 5.45852 17.306 5.16724 16.9477 4.98468C16.5404 4.77716 16.0072 4.77716 14.9408 4.77716H4.65876M14.1323 10.6315C14.1323 10.868 13.9405 11.0599 13.7039 11.0599C13.4673 11.0599 13.2755 10.868 13.2755 10.6315C13.2755 10.3949 13.4673 10.203 13.7039 10.203C13.9405 10.203 14.1323 10.3949 14.1323 10.6315Z" stroke="#484849" stroke-width="1.2" stroke-linecap="round" stroke-linejoin="round"/>
</svg>
